<?xml version="1.0" encoding="UTF-8"?>
<svg width="240px" height="56px" viewBox="0 0 240 56" version="1.1" xmlns="http://www.w3.org/2000/svg" xmlns:xlink="http://www.w3.org/1999/xlink">
    <!-- Generator: Sketch 55 (78076) - https://sketchapp.com -->
    <title>logos/recife-sigla</title>
    <desc>Created with Sketch.</desc>
    <defs>
        <polygon id="path-1" points="0.0524861053 0.426695652 9.78339786 0.426695652 9.78339786 55.3913043 0.0524861053 55.3913043"></polygon>
    </defs>
    <g id="Symbols" stroke="none" stroke-width="1" fill="none" fill-rule="evenodd">
        <g id="logos/recife-sigla">
            <g>
                <polygon id="Fill-1" fill="#24388B" points="50.5314084 55.5727565 239.633433 55.5727565 239.633433 0.608756522 50.5314084 0.608756522"></polygon>
                <polygon id="Fill-2" fill="#2593D1" points="0 55.5727565 50.5314084 55.5727565 50.5314084 0.608756522 0 0.608756522"></polygon>
                <polygon id="Fill-3" fill="#FEFEFE" points="100.797467 7.05806957 128.236205 7.05806957 128.236205 16.4453739 112.268387 16.4453739 112.268387 24.3085043 127.285617 24.3085043 127.285617 33.5692 112.268387 33.5692 112.268387 49.8055478 100.797467 49.8055478"></polygon>
                <polygon id="Fill-4" fill="#FEFEFE" points="134.793198 49.8047565 146.264118 49.8047565 146.264118 7.05788696 134.793198 7.05788696"></polygon>
                <g id="Group-24" transform="translate(13.988186, 0.182061)">
                    <path d="M171.978478,48.4807217 C170.394772,49.3055043 166.340023,50.2568957 161.268394,50.2568957 C145.300576,50.2568957 138.266951,40.3004609 138.266951,28.9470696 C138.266951,13.9171565 149.293898,6.24211304 162.029837,6.24211304 C166.907457,6.24211304 170.901388,7.19350435 172.674847,8.0822 L170.456807,17.1511565 C168.619489,16.3896783 165.958085,15.6282 162.535845,15.6282 C156.01066,15.6282 150.306521,19.4976783 150.306521,28.1855913 C150.306521,35.9233304 154.93357,40.7435913 162.790673,40.7435913 C165.515937,40.7435913 168.619489,40.2365478 170.394772,39.5389826 L171.978478,48.4807217 Z" id="Fill-5" fill="#FEFEFE"></path>
                    <path d="M177.85899,7.51026957 C181.090869,7.00383478 185.970313,6.55948696 191.674452,6.55948696 C198.201461,6.55948696 202.890544,7.44757391 206.120599,9.92070435 C208.84647,12.0127913 210.303674,15.057487 210.303674,19.1807913 C210.303674,24.507487 206.312176,28.2497478 203.014613,29.5176609 L203.014613,29.7087913 C205.803128,30.9767043 207.387442,33.7042696 208.464532,37.3820087 C209.734416,41.7585304 211.125936,47.9739217 211.952456,49.6228783 L200.291782,49.6228783 C199.658057,48.3549652 198.518324,45.0570522 197.313515,39.7285304 C196.173782,34.6550522 194.587644,33.5764435 191.040726,33.5764435 L189.202192,33.5764435 L189.202192,49.6228783 L177.85899,49.6228783 L177.85899,7.51026957 Z M189.202192,25.3328783 L192.181068,25.3328783 C196.490645,25.3328783 198.959256,23.2395739 198.959256,20.0676609 C198.959256,16.8975739 196.869542,15.057487 193.069013,15.057487 C190.913616,15.057487 189.773883,15.1847043 189.202192,15.3107043 L189.202192,25.3328783 Z" id="Fill-7" fill="#FEFEFE"></path>
                    <g id="Group-11" transform="translate(31.625463, 0.000000)">
                        <mask id="mask-2" fill="white">
                            <use xlink:href="#path-1"></use>
                        </mask>
                        <g id="Clip-10"></g>
                        <path d="M4.91794198,55.3915478 C4.42896367,55.3915478 4.43626185,54.9538957 4.43626185,54.9538957 C3.65961346,46.0864174 3.40296066,37.1775478 3.60122799,28.2784174 C3.77091076,20.6904174 4.20332815,13.1133739 4.21609997,5.52111304 C4.21609997,5.45050435 4.15832269,5.39146087 4.08716539,5.39146087 L0.180812504,5.39146087 C0.109655212,5.39146087 0.0524861053,5.33485217 0.0524861053,5.26302609 L0.0524861053,4.02433043 C0.0524861053,3.95372174 0.109655212,3.89589565 0.180812504,3.89589565 L4.08777358,3.89589565 C4.15893087,3.89589565 4.21609997,3.83867826 4.21609997,3.76746087 L4.21609997,0.554765217 C4.21609997,0.484156522 4.27326908,0.426330435 4.34503456,0.426330435 L5.49024123,0.426330435 C5.56200671,0.426330435 5.61917581,0.484156522 5.61917581,0.554765217 L5.61917581,3.76746087 C5.61917581,3.83867826 5.6769531,3.89589565 5.74750221,3.89589565 L9.65507147,3.89589565 C9.72501239,3.89589565 9.78339786,3.95372174 9.78339786,4.02433043 L9.78339786,5.26302609 C9.78339786,5.33485217 9.72501239,5.39146087 9.65507147,5.39146087 L5.74871858,5.39146087 C5.67756128,5.39146087 5.61917581,5.45050435 5.61917581,5.52111304 C5.63194764,13.1133739 6.06436503,20.6904174 6.23465598,28.2784174 C6.43231513,37.1775478 6.17566233,46.0864174 5.39962212,54.9538957 C5.39962212,54.9538957 5.4002303,55.3915478 4.91794198,55.3915478" id="Fill-9" fill="#FEFEFE" mask="url(#mask-2)"></path>
                    </g>
                    <path d="M43.0433502,9.75897391 C42.1517554,13.7051478 41.2619851,17.7773217 41.2388742,21.8391478 C41.2108978,26.9217565 42.5859973,31.3262783 45.0041289,35.7673217 C45.0102107,35.7776696 45.0156843,35.7886261 45.0217662,35.7995826 L53.1683639,53.1997565 C53.2966903,53.4736696 53.1908666,53.8011478 52.9238747,53.9454087 C52.6580992,54.0896696 52.3260318,54.0026261 52.1666881,53.7457565 L42.1322936,37.6798435 C42.1310772,37.6774087 42.1298608,37.6755826 42.1274281,37.6737565 C40.5291258,35.3759304 39.4271001,32.8705391 38.8657481,30.1259304 C37.4711868,23.2969739 39.653952,15.8392348 41.946798,9.4394087 C42.0477563,9.15514783 42.3524554,8.99932174 42.6425582,9.08271304 C42.9338774,9.16549565 43.1102502,9.46375652 43.0433502,9.75897391" id="Fill-12" fill="#FEFEFE"></path>
                    <path d="M21.9820688,12.2122 C21.8592161,11.9455913 21.9553088,11.6315043 22.206488,11.4805478 C22.4564508,11.3302 22.7793954,11.392287 22.9563764,11.6254174 C29.45845,20.1995043 30.7076558,28.5100261 21.2151514,35.3828087 C19.2811327,36.7840261 17.2948103,38.1207217 15.2938916,39.4245478 C13.112951,40.8452435 10.9064667,42.2288087 8.6890352,43.5904609 C6.25934817,45.0817652 3.81384841,46.5487217 1.36409137,48.004113 C1.10135676,48.1599391 0.760166663,48.0808087 0.593524799,47.8263739 C0.426882935,47.5713304 0.487701134,47.2304609 0.73462302,47.0508957 L19.3820909,33.458113 C21.8385379,31.6673304 24.1739567,29.4303739 25.0284524,26.4179391 C25.6050089,24.3855043 25.4377589,22.2855043 24.9688506,20.2500261 C24.338774,17.5133304 23.1595092,14.7535043 21.9820688,12.2122" id="Fill-14" fill="#FEFEFE"></path>
                    <path d="M25.4737633,10.7089043 C25.382536,10.4264696 25.5260669,10.121513 25.800357,10.0082957 C26.0728225,9.89690435 26.3866444,10.0119478 26.5186199,10.2767304 C28.049414,13.3622087 29.5078344,16.6601217 30.351991,20.0079478 C31.047143,22.7665565 31.3256903,25.6225565 30.6986547,28.4219478 C29.9098427,31.9389913 27.8310766,34.7359478 25.1569004,37.0745565 C22.6560561,39.2658609 20.1284518,41.4273391 17.5588829,43.5389043 C15.4472751,45.2749043 13.308299,46.9725565 11.1443875,48.6434261 C9.9937072,49.5321217 8.83694506,50.4141217 7.67714201,51.293687 C7.43995104,51.4744696 7.10180186,51.4416 6.90718362,51.2133391 C6.71378175,50.9869043 6.73263539,50.649687 6.94428272,50.4409043 L23.3463427,34.3822957 C25.3174605,32.4521217 27.1748483,30.2614261 27.9922449,27.5746435 C28.6703678,25.3407304 28.5560296,23.0057739 28.1759158,20.7292522 C27.9247367,19.2178609 27.5555702,17.7180348 27.1511292,16.2413391 C26.6414727,14.3842087 26.064308,12.541687 25.4737633,10.7089043" id="Fill-16" fill="#FEFEFE"></path>
                    <path d="M30.1444184,9.75897391 C30.0775184,9.46375652 30.2544994,9.16549565 30.5446022,9.08271304 C30.8340968,8.99932174 31.138796,9.15514783 31.2403624,9.4394087 C33.5344248,15.8392348 35.7165818,23.2969739 34.3214123,30.1259304 C33.7612767,32.8705391 32.6580346,35.3759304 31.0591242,37.6737565 C31.058516,37.6755826 31.0566914,37.6774087 31.0554751,37.6798435 L21.0210805,53.7457565 C20.8611286,54.0026261 20.5290613,54.0896696 20.2638939,53.9454087 C19.9975102,53.8011478 19.889862,53.4736696 20.0187966,53.1997565 L28.1660025,35.7995826 C28.1714761,35.7886261 28.1763415,35.7776696 28.1824234,35.7673217 C30.6011631,31.3262783 31.9762626,26.9217565 31.947678,21.8391478 C31.9251753,17.7773217 31.0354051,13.7051478 30.1444184,9.75897391" id="Fill-18" fill="#FEFEFE"></path>
                    <path d="M51.2050916,12.2122 C50.0276513,14.7535043 48.8483864,17.5133304 48.2195262,20.2500261 C47.7506179,22.2855043 47.5815433,24.3855043 48.1593162,26.4179391 C49.0138119,29.4303739 51.3486225,31.6673304 53.8050696,33.458113 L72.4531456,47.0508957 C72.6994593,47.2304609 72.7608857,47.5713304 72.5930275,47.8263739 C72.4269938,48.0808087 72.0851955,48.1599391 71.8242854,48.004113 C69.3727038,46.5487217 66.9290286,45.0817652 64.4987334,43.5904609 C62.2806937,42.2288087 60.0736013,40.8452435 57.8926607,39.4245478 C55.891742,38.1207217 53.906636,36.7840261 51.9726173,35.3828087 C42.480721,28.5100261 43.7281023,20.1995043 50.230784,11.6254174 C50.4071568,11.392287 50.7307096,11.3302 50.9812806,11.4805478 C51.2324598,11.6315043 51.3285525,11.9455913 51.2050916,12.2122" id="Fill-20" fill="#FEFEFE"></path>
                    <path d="M47.7133972,10.7089043 C47.1228525,12.541687 46.5462959,14.3842087 46.0366394,16.2413391 C45.6309821,17.7180348 45.2636401,19.2178609 45.0106364,20.7292522 C44.6317391,23.0057739 44.5167927,25.3407304 45.1955238,27.5746435 C46.011704,30.2614261 47.8696999,32.4521217 49.8414259,34.3822957 L66.2428777,50.4409043 C66.4551332,50.649687 66.4733787,50.9869043 66.2793686,51.2133391 C66.0853586,51.4416 65.7478176,51.4744696 65.5106266,51.293687 C64.3508236,50.4141217 63.1940614,49.5321217 62.0427729,48.6434261 C59.8788614,46.9725565 57.7392772,45.2749043 55.6282775,43.5389043 C53.0593168,41.4273391 50.5317125,39.2658609 48.03026,37.0745565 C45.3554756,34.7359478 43.2773178,31.9389913 42.4897221,28.4219478 C41.8620783,25.6225565 42.1400175,22.7665565 42.8351695,20.0079478 C43.6787179,16.6601217 45.1377465,13.3622087 46.6685405,10.2767304 C46.800516,10.0119478 47.1143379,9.89690435 47.3874116,10.0082957 C47.6610935,10.121513 47.8046245,10.4264696 47.7133972,10.7089043" id="Fill-22" fill="#FEFEFE"></path>
                </g>
            </g>
        </g>
    </g>
</svg>