<?xml version="1.0" encoding="utf-8"?>
<!-- Generator: Adobe Illustrator 24.3.0, SVG Export Plug-In . SVG Version: 6.00 Build 0)  -->
<svg version="1.1" id="Layer_1" xmlns="http://www.w3.org/2000/svg" xmlns:xlink="http://www.w3.org/1999/xlink" x="0px" y="0px"
	 viewBox="0 0 185 188" style="enable-background:new 0 0 185 188;" xml:space="preserve">
<style type="text/css">
	.st0{display:none;}
	.st1{display:inline;}
	.st2{fill:#4E4E4E;}
	.st3{display:inline;fill:url(#SVGID_1_);}
	.st4{display:inline;fill:url(#SVGID_2_);}
	.st5{display:inline;fill:url(#SVGID_3_);}
	.st6{display:inline;fill:url(#SVGID_4_);}
	.st7{display:inline;fill:url(#SVGID_5_);}
	.st8{display:inline;fill:url(#SVGID_6_);}
	.st9{display:inline;fill:url(#SVGID_7_);}
	.st10{display:inline;fill:url(#SVGID_8_);}
	.st11{fill:#E6E6E5;}
	.st12{display:inline;fill:url(#SVGID_9_);}
	.st13{display:inline;fill:url(#SVGID_10_);}
	.st14{display:inline;fill:url(#SVGID_11_);}
	.st15{display:inline;fill:url(#SVGID_12_);}
	.st16{font-family:'Auto-Techno';}
	.st17{font-size:33.098px;}
	.st18{fill:#F8DC3D;}
	.st19{fill:#FFFFFF;}
	.st20{font-family:'SquaredDisplay';}
	.st21{font-size:24px;}
</style>
<g class="st0">
	<g class="st1">
		<path class="st2" d="M115.9,18c0,2.7-0.7,4.7-2.2,6.2c-1.5,1.4-3.5,2.2-6.2,2.2h-5.1v-16h5.5c2.6,0,4.5,0.7,5.9,2
			C115.2,13.6,115.9,15.5,115.9,18z M111.4,18.1c0-1.5-0.3-2.6-0.9-3.3s-1.5-1.1-2.6-1.1h-1.3v9h1c1.3,0,2.3-0.4,2.9-1.1
			S111.4,19.7,111.4,18.1z"/>
		<path class="st2" d="M123.1,26.5c-2.1,0-3.6-0.5-4.8-1.6c-1.1-1.1-1.7-2.7-1.7-4.7c0-2.1,0.5-3.7,1.6-4.8s2.6-1.7,4.5-1.7
			s3.3,0.5,4.3,1.5s1.5,2.4,1.5,4.2v1.9h-7.6c0,0.7,0.3,1.2,0.8,1.6s1.1,0.6,1.9,0.6c0.7,0,1.4-0.1,2.1-0.2c0.6-0.1,1.3-0.4,2-0.7
			v3.1c-0.7,0.3-1.4,0.6-2.1,0.7C125,26.5,124.1,26.5,123.1,26.5z M122.9,16.6c-0.5,0-0.9,0.2-1.3,0.5c-0.3,0.3-0.5,0.8-0.6,1.5h3.7
			c0-0.6-0.2-1.1-0.5-1.4S123.4,16.6,122.9,16.6z"/>
		<path class="st2" d="M132.9,26.3l-4.7-12.4h4.4l2.1,7.3c0,0,0,0.1,0,0.2s0,0.2,0.1,0.3c0,0.1,0,0.2,0.1,0.4c0,0.1,0,0.3,0,0.4h0.1
			c0-0.4,0.1-0.8,0.2-1.2l2.2-7.4h4.4l-4.7,12.4H132.9L132.9,26.3z"/>
		<path class="st2" d="M146.4,26.3h-4.2v-16h9.4v3.5h-5.2v3.1h4.8v3.5h-4.8V26.3L146.4,26.3z"/>
		<path class="st2" d="M158.5,26.5c-2.1,0-3.6-0.5-4.8-1.6s-1.7-2.7-1.7-4.7c0-2.1,0.5-3.7,1.6-4.8s2.6-1.7,4.5-1.7s3.3,0.5,4.3,1.5
			s1.5,2.4,1.5,4.2v1.9h-7.6c0,0.7,0.3,1.2,0.8,1.6s1.1,0.6,1.9,0.6c0.7,0,1.4-0.1,2.1-0.2s1.3-0.4,2-0.7v3.1
			c-0.7,0.3-1.4,0.6-2.1,0.7C160.4,26.5,159.5,26.5,158.5,26.5z M158.3,16.6c-0.5,0-0.9,0.2-1.3,0.5c-0.3,0.3-0.5,0.8-0.6,1.5h3.7
			c0-0.6-0.2-1.1-0.5-1.4C159.3,16.8,158.8,16.6,158.3,16.6z"/>
		<path class="st2" d="M174.5,22.5c0,1.3-0.4,2.3-1.4,3c-0.9,0.7-2.2,1-3.9,1c-0.9,0-1.7,0-2.4-0.1s-1.4-0.3-2.1-0.5v-3.4
			c0.7,0.3,1.4,0.5,2.2,0.7s1.5,0.3,2.1,0.3c0.9,0,1.4-0.2,1.4-0.6c0-0.2-0.1-0.4-0.4-0.6c-0.3-0.2-1-0.5-2.2-1
			c-1.1-0.5-1.9-1-2.4-1.6c-0.4-0.6-0.7-1.4-0.7-2.3c0-1.2,0.4-2.1,1.3-2.7c0.9-0.6,2.1-1,3.8-1c0.8,0,1.6,0.1,2.3,0.3
			s1.5,0.4,2.2,0.8l-1.2,2.8c-0.6-0.3-1.2-0.5-1.8-0.7s-1.1-0.3-1.5-0.3c-0.7,0-1,0.2-1,0.5c0,0.2,0.1,0.4,0.4,0.5s0.9,0.5,2.1,0.9
			c0.9,0.4,1.5,0.7,1.9,1.1s0.7,0.7,0.9,1.2C174.4,21.3,174.5,21.8,174.5,22.5z"/>
		<path class="st2" d="M181.6,23.2c0.6,0,1.3-0.1,2.1-0.4v3.1c-0.6,0.2-1.1,0.4-1.6,0.5s-1.1,0.2-1.8,0.2c-1.4,0-2.5-0.4-3.1-1.1
			s-0.9-1.8-0.9-3.3v-5.1h-1.5v-1.7l1.9-1.3l1.1-2.6h2.8V14h3v3.2h-3V22C180.5,22.8,180.8,23.2,181.6,23.2z"/>
	</g>
	<g class="st1">
		<path class="st2" d="M60.3,47.9H50V46l3.9-3.9c1.2-1.2,1.9-2,2.3-2.5s0.7-1,0.8-1.4s0.3-0.9,0.3-1.4c0-0.7-0.2-1.2-0.6-1.6
			c-0.4-0.4-1-0.6-1.7-0.6c-0.6,0-1.1,0.1-1.7,0.3c-0.5,0.2-1.2,0.6-1.9,1.2l-1.3-1.6c0.8-0.7,1.7-1.2,2.5-1.5s1.6-0.4,2.5-0.4
			c1.4,0,2.5,0.4,3.4,1.1s1.3,1.7,1.3,3c0,0.7-0.1,1.3-0.4,1.9c-0.2,0.6-0.6,1.2-1.1,1.9S57,42,55.8,43.1l-2.6,2.5v0.1h7.2
			L60.3,47.9L60.3,47.9z"/>
		<path class="st2" d="M71.1,40.3c0,2.6-0.4,4.6-1.3,5.9c-0.8,1.3-2.1,1.9-3.9,1.9c-1.7,0-3-0.7-3.8-2s-1.3-3.2-1.3-5.8
			c0-2.7,0.4-4.6,1.3-5.9c0.8-1.3,2.1-1.9,3.9-1.9c1.7,0,3,0.7,3.8,2C70.7,35.8,71.1,37.8,71.1,40.3z M63.3,40.3
			c0,2.1,0.2,3.5,0.6,4.4s1.1,1.3,2,1.3s1.6-0.4,2-1.3c0.4-0.9,0.6-2.4,0.6-4.4s-0.2-3.5-0.6-4.4s-1.1-1.4-2-1.4s-1.6,0.4-2,1.3
			C63.5,36.8,63.3,38.3,63.3,40.3z"/>
		<path class="st2" d="M78.8,47.9h-2.4v-9.8c0-1.2,0-2.1,0.1-2.8c-0.2,0.2-0.4,0.3-0.6,0.5s-1,0.8-2.3,1.9l-1.2-1.5l4.4-3.5h2V47.9
			L78.8,47.9z"/>
		<path class="st2" d="M93.3,44.6h-2v3.3h-2.4v-3.3H82v-1.9l6.9-10h2.4v9.8h2C93.3,42.6,93.3,44.6,93.3,44.6z M88.9,42.6v-3.8
			c0-1.4,0-2.5,0.1-3.3h-0.1c-0.2,0.5-0.5,1-0.9,1.7l-3.8,5.5h4.7C88.9,42.7,88.9,42.6,88.9,42.6z"/>
		<path class="st2" d="M107.3,43.8c0,1.3-0.5,2.4-1.5,3.2s-2.3,1.1-4,1.1s-3.1-0.3-4.2-0.8V45c0.7,0.3,1.4,0.6,2.2,0.8
			c0.8,0.2,1.5,0.3,2.2,0.3c1,0,1.7-0.2,2.2-0.6c0.5-0.4,0.7-0.9,0.7-1.5s-0.2-1-0.6-1.4s-1.3-0.9-2.6-1.4c-1.4-0.6-2.4-1.2-2.9-1.9
			c-0.6-0.7-0.8-1.6-0.8-2.6c0-1.3,0.4-2.3,1.3-3s2.1-1.1,3.6-1.1c1.4,0,2.9,0.3,4.3,1l-0.8,2c-1.3-0.6-2.5-0.8-3.6-0.8
			c-0.8,0-1.4,0.2-1.8,0.5s-0.6,0.8-0.6,1.4c0,0.4,0.1,0.7,0.2,1s0.4,0.5,0.8,0.8c0.4,0.2,1.1,0.6,2,1c1.1,0.5,1.9,0.9,2.4,1.3
			c0.5,0.4,0.9,0.9,1.1,1.4C107.2,42.5,107.3,43.1,107.3,43.8z"/>
		<path class="st2" d="M113.7,48.1c-1.8,0-3.2-0.5-4.2-1.6c-1-1-1.5-2.5-1.5-4.3c0-1.9,0.5-3.3,1.4-4.4s2.2-1.6,3.8-1.6
			c1.5,0,2.7,0.5,3.6,1.4s1.3,2.2,1.3,3.8v1.3h-7.6c0,1.1,0.3,2,0.9,2.6s1.4,0.9,2.4,0.9c0.7,0,1.3-0.1,1.9-0.2
			c0.6-0.1,1.2-0.3,1.9-0.6v2c-0.6,0.3-1.2,0.5-1.8,0.6S114.5,48.1,113.7,48.1z M113.3,38.1c-0.8,0-1.4,0.2-1.9,0.7
			s-0.7,1.2-0.8,2.1h5.2c0-0.9-0.2-1.7-0.7-2.1S114.1,38.1,113.3,38.1z"/>
		<path class="st2" d="M126.8,47.9l-0.5-1.6h-0.1c-0.6,0.7-1.1,1.2-1.7,1.4c-0.6,0.3-1.3,0.4-2.2,0.4c-1.1,0-2-0.3-2.6-0.9
			c-0.6-0.6-0.9-1.5-0.9-2.6c0-1.2,0.4-2.1,1.3-2.7c0.9-0.6,2.2-0.9,4-1l2-0.1v-0.6c0-0.7-0.2-1.3-0.5-1.6c-0.3-0.4-0.9-0.5-1.6-0.5
			c-0.6,0-1.1,0.1-1.7,0.3c-0.5,0.2-1.1,0.4-1.6,0.6l-0.8-1.7c0.6-0.3,1.3-0.6,2-0.7c0.7-0.2,1.4-0.3,2.1-0.3c1.5,0,2.6,0.3,3.3,1
			c0.7,0.6,1.1,1.6,1.1,3V48C128.6,47.9,126.8,47.9,126.8,47.9z M123.2,46.2c0.9,0,1.6-0.2,2.1-0.7s0.8-1.2,0.8-2.1v-1l-1.5,0.1
			c-1.1,0-2,0.2-2.5,0.6s-0.8,0.9-0.8,1.6c0,0.5,0.2,0.9,0.5,1.2C122.1,46.1,122.6,46.2,123.2,46.2z"/>
		<path class="st2" d="M138.4,44.6c0,1.1-0.4,2-1.2,2.6s-2,0.9-3.5,0.9s-2.7-0.2-3.7-0.7v-2.1c1.3,0.6,2.6,0.9,3.8,0.9
			c1.5,0,2.2-0.5,2.2-1.4c0-0.3-0.1-0.5-0.2-0.7c-0.2-0.2-0.4-0.4-0.8-0.6c-0.4-0.2-0.9-0.4-1.6-0.7c-1.3-0.5-2.2-1-2.7-1.5
			s-0.7-1.2-0.7-2c0-1,0.4-1.7,1.2-2.3c0.8-0.5,1.9-0.8,3.2-0.8s2.6,0.3,3.8,0.8l-0.8,1.8c-1.2-0.5-2.3-0.8-3.1-0.8
			c-1.3,0-1.9,0.4-1.9,1.1c0,0.4,0.2,0.7,0.5,0.9s1.1,0.6,2.2,1c0.9,0.4,1.6,0.7,2.1,1c0.4,0.3,0.7,0.7,1,1S138.4,44.1,138.4,44.6z"
			/>
		<path class="st2" d="M149.9,42.1c0,1.9-0.5,3.3-1.4,4.4s-2.3,1.6-4,1.6c-1.1,0-2-0.2-2.8-0.7s-1.5-1.2-1.9-2.1
			c-0.4-0.9-0.7-2-0.7-3.1c0-1.9,0.5-3.3,1.4-4.3c1-1,2.3-1.6,4-1.6s3,0.5,3.9,1.6S149.9,40.3,149.9,42.1z M141.5,42.1
			c0,2.6,1,4,2.9,4s2.9-1.3,2.9-4c0-2.6-1-3.9-2.9-3.9c-1,0-1.8,0.3-2.2,1C141.8,39.9,141.5,40.9,141.5,42.1z"/>
		<path class="st2" d="M161.5,47.9H159v-7c0-0.9-0.2-1.5-0.5-2c-0.4-0.4-0.9-0.7-1.7-0.7c-1,0-1.8,0.3-2.3,0.9
			c-0.5,0.6-0.7,1.6-0.7,3.1v5.7h-2.4V36.4h1.9l0.3,1.5h0.1c0.3-0.5,0.8-1,1.5-1.3c0.6-0.3,1.3-0.4,2.1-0.4c2.7,0,4.1,1.4,4.1,4.2
			L161.5,47.9L161.5,47.9z"/>
	</g>
	<g class="st1">
		<path class="st2" d="M55.6,17.3h6.9V26c-1.9,0.6-3.9,1-6.2,1c-2.5,0-4.4-0.7-5.7-2.1s-2-3.5-2-6.1s0.7-4.6,2.2-6s3.5-2.2,6.2-2.2
			c1,0,2,0.1,2.9,0.3s1.7,0.4,2.3,0.7L60.8,15c-1.2-0.7-2.4-1-3.8-1c-1.3,0-2.2,0.4-2.9,1.2s-1,2-1,3.5s0.3,2.6,0.9,3.4
			s1.5,1.2,2.7,1.2c0.6,0,1.2-0.1,1.8-0.2v-2.5h-2.9C55.6,20.7,55.6,17.3,55.6,17.3z"/>
		<path class="st2" d="M78,18.3c0,2.7-0.7,4.7-2.2,6.2s-3.5,2.2-6.2,2.2h-5.2v-16H70c2.6,0,4.6,0.7,6,2S78,15.9,78,18.3z M73.5,18.5
			c0-1.5-0.3-2.6-0.9-3.3s-1.5-1.1-2.6-1.1h-1.3v9h1c1.3,0,2.3-0.4,2.9-1.1S73.5,20.1,73.5,18.5z"/>
		<path class="st2" d="M86,17.3h6.9V26c-1.9,0.6-3.9,1-6.2,1c-2.5,0-4.4-0.7-5.7-2.1c-1.3-1.4-2-3.5-2-6.1s0.7-4.6,2.2-6
			s3.5-2.2,6.2-2.2c1,0,2,0.1,2.9,0.3s1.7,0.4,2.3,0.7L91.2,15c-1.2-0.6-2.4-0.9-3.8-0.9c-1.3,0-2.2,0.4-2.9,1.2c-0.7,0.8-1,2-1,3.5
			s0.3,2.6,0.9,3.4s1.5,1.2,2.7,1.2c0.6,0,1.2-0.1,1.8-0.2v-2.5H86C86,20.7,86,17.3,86,17.3z"/>
	</g>
	
		<radialGradient id="SVGID_1_" cx="164.2108" cy="-528.7173" r="20.0933" gradientTransform="matrix(0.498 0 0 -0.498 -64.1529 -213.4512)" gradientUnits="userSpaceOnUse">
		<stop  offset="0" style="stop-color:#FFCF4F"/>
		<stop  offset="1" style="stop-color:#F4C236"/>
	</radialGradient>
	<path class="st3" d="M8.9,61h6.8c1.6,0,3.6-1.1,4.4-2.5l5.7-9.5c0.7-1.4,0.7-3.4-0.1-4.7l-3.4-5.6L8.9,61z"/>
	
		<radialGradient id="SVGID_2_" cx="152.159" cy="-518.4763" r="27.6523" gradientTransform="matrix(0.498 0 0 -0.498 -64.1529 -213.4512)" gradientUnits="userSpaceOnUse">
		<stop  offset="0" style="stop-color:#08A960"/>
		<stop  offset="1" style="stop-color:#07914B"/>
	</radialGradient>
	<path class="st4" d="M16.2,33.5L1.1,58.8C0.5,60,1.1,61,2.6,61h6.3l13.4-22.3l-6.1-10.2C17,29.9,17,32.1,16.2,33.5"/>
	
		<radialGradient id="SVGID_3_" cx="161.5994" cy="-478.7173" r="40.5834" gradientTransform="matrix(0.498 0 0 -0.498 -64.1529 -213.4512)" gradientUnits="userSpaceOnUse">
		<stop  offset="0" style="stop-color:#567FC0"/>
		<stop  offset="1" style="stop-color:#557FC0"/>
	</radialGradient>
	<path class="st5" d="M2.6,1C1,1,0.4,2.1,1.2,3.5l24.5,40.7c0.8,1.3,0.8,3.3,0.1,4.7l6-9.9L8.9,1H2.6z"/>
	
		<radialGradient id="SVGID_4_" cx="173.6749" cy="-468.7775" r="33.0838" gradientTransform="matrix(0.498 0 0 -0.498 -64.1529 -213.4512)" gradientUnits="userSpaceOnUse">
		<stop  offset="0" style="stop-color:#E14C40"/>
		<stop  offset="1" style="stop-color:#CD392D"/>
	</radialGradient>
	<path class="st6" d="M8.9,1l22.9,38l3.3-5.5c0.8-1.4,0.8-3.6,0-5l-15-25C19.3,2.1,17.3,1,15.7,1H8.9z"/>
</g>
<g class="st0">
	<g class="st1">
		<path class="st2" d="M115.9,81c0,2.7-0.7,4.7-2.2,6.2c-1.5,1.4-3.5,2.2-6.2,2.2h-5.1v-16h5.5c2.6,0,4.5,0.7,5.9,2
			S115.9,78.5,115.9,81z M111.4,81.1c0-1.5-0.3-2.6-0.9-3.3c-0.6-0.7-1.5-1.1-2.6-1.1h-1.3v9h1c1.3,0,2.3-0.4,2.9-1.1
			S111.4,82.7,111.4,81.1z"/>
		<path class="st2" d="M123.1,89.5c-2.1,0-3.6-0.6-4.8-1.7c-1.1-1.1-1.7-2.7-1.7-4.7c0-2.1,0.5-3.7,1.6-4.8c1.1-1.1,2.6-1.7,4.5-1.7
			s3.3,0.5,4.3,1.5s1.5,2.4,1.5,4.2v1.9h-7.6c0,0.7,0.3,1.2,0.8,1.6s1.1,0.6,1.9,0.6c0.7,0,1.4-0.1,2.1-0.2c0.6-0.1,1.3-0.4,2-0.7
			v3.1c-0.7,0.3-1.4,0.6-2.1,0.7C125,89.5,124.1,89.5,123.1,89.5z M122.9,79.6c-0.5,0-0.9,0.2-1.3,0.5c-0.3,0.3-0.5,0.8-0.6,1.5h3.7
			c0-0.6-0.2-1.1-0.5-1.4S123.4,79.6,122.9,79.6z"/>
		<path class="st2" d="M132.9,89.3l-4.7-12.4h4.4l2.1,7.3c0,0,0,0.1,0,0.2s0,0.2,0.1,0.3c0,0.1,0,0.2,0.1,0.4c0,0.1,0,0.3,0,0.4h0.1
			c0-0.4,0.1-0.8,0.2-1.2l2.2-7.4h4.4l-4.7,12.4L132.9,89.3L132.9,89.3z"/>
		<path class="st2" d="M146.4,89.3h-4.2v-16h9.4v3.5h-5.2v3.1h4.8v3.5h-4.8V89.3L146.4,89.3z"/>
		<path class="st2" d="M158.5,89.5c-2.1,0-3.6-0.6-4.8-1.7s-1.7-2.7-1.7-4.7c0-2.1,0.5-3.7,1.6-4.8c1.1-1.1,2.6-1.7,4.5-1.7
			s3.3,0.5,4.3,1.5s1.5,2.4,1.5,4.2v1.9h-7.6c0,0.7,0.3,1.2,0.8,1.6s1.1,0.6,1.9,0.6c0.7,0,1.4-0.1,2.1-0.2s1.3-0.4,2-0.7v3.1
			c-0.7,0.3-1.4,0.6-2.1,0.7C160.4,89.5,159.5,89.5,158.5,89.5z M158.3,79.6c-0.5,0-0.9,0.2-1.3,0.5c-0.3,0.3-0.5,0.8-0.6,1.5h3.7
			c0-0.6-0.2-1.1-0.5-1.4C159.3,79.8,158.8,79.6,158.3,79.6z"/>
		<path class="st2" d="M174.5,85.5c0,1.3-0.4,2.3-1.4,3c-0.9,0.7-2.2,1-3.9,1c-0.9,0-1.7-0.1-2.4-0.1s-1.4-0.3-2.1-0.5v-3.4
			c0.7,0.3,1.4,0.5,2.2,0.7s1.5,0.3,2.1,0.3c0.9,0,1.4-0.2,1.4-0.6c0-0.2-0.1-0.4-0.4-0.6c-0.3-0.2-1-0.5-2.2-1
			c-1.1-0.5-1.9-1-2.4-1.6c-0.4-0.6-0.7-1.4-0.7-2.3c0-1.2,0.4-2.1,1.3-2.7c0.9-0.6,2.1-1,3.8-1c0.8,0,1.6,0.1,2.3,0.3
			c0.7,0.2,1.5,0.4,2.2,0.8l-1.2,2.8c-0.6-0.3-1.2-0.5-1.8-0.7s-1.1-0.3-1.5-0.3c-0.7,0-1,0.2-1,0.5c0,0.2,0.1,0.4,0.4,0.5
			c0.2,0.1,0.9,0.5,2.1,0.9c0.9,0.4,1.5,0.7,1.9,1.1s0.7,0.7,0.9,1.2C174.4,84.3,174.5,84.8,174.5,85.5z"/>
		<path class="st2" d="M181.6,86.2c0.6,0,1.3-0.1,2.1-0.4v3.1c-0.6,0.2-1.1,0.4-1.6,0.5s-1.1,0.2-1.8,0.2c-1.4,0-2.5-0.4-3.1-1.1
			s-0.9-1.8-0.9-3.3v-5.1h-1.5v-1.7l1.9-1.3l1.1-2.6h2.8V77h3v3.2h-3V85C180.5,85.8,180.8,86.2,181.6,86.2z"/>
	</g>
	<g class="st1">
		<path class="st2" d="M60.3,110.9H50V109l3.9-3.9c1.2-1.2,1.9-2,2.3-2.5s0.7-1,0.8-1.4c0.2-0.4,0.3-0.9,0.3-1.4
			c0-0.7-0.2-1.2-0.6-1.6c-0.4-0.4-1-0.6-1.7-0.6c-0.6,0-1.1,0.1-1.7,0.3c-0.5,0.2-1.2,0.6-1.9,1.2l-1.3-1.6
			c0.8-0.7,1.7-1.2,2.5-1.5s1.6-0.4,2.5-0.4c1.4,0,2.5,0.4,3.4,1.1s1.3,1.7,1.3,3c0,0.7-0.1,1.3-0.4,1.9c-0.2,0.6-0.6,1.2-1.1,1.9
			s-1.3,1.5-2.5,2.6l-2.6,2.5v0.1h7.2L60.3,110.9L60.3,110.9z"/>
		<path class="st2" d="M71.1,103.3c0,2.6-0.4,4.6-1.3,5.9c-0.8,1.3-2.1,1.9-3.9,1.9c-1.7,0-3-0.7-3.8-2c-0.9-1.3-1.3-3.2-1.3-5.8
			c0-2.7,0.4-4.6,1.3-5.9c0.8-1.3,2.1-1.9,3.9-1.9c1.7,0,3,0.7,3.8,2S71.1,100.8,71.1,103.3z M63.3,103.3c0,2.1,0.2,3.5,0.6,4.4
			s1.1,1.3,2,1.3s1.6-0.4,2-1.3s0.6-2.4,0.6-4.4s-0.2-3.5-0.6-4.4s-1.1-1.4-2-1.4s-1.6,0.4-2,1.3C63.5,99.8,63.3,101.3,63.3,103.3z"
			/>
		<path class="st2" d="M78.8,110.9h-2.4v-9.8c0-1.2,0-2.1,0.1-2.8c-0.2,0.2-0.4,0.3-0.6,0.5s-1,0.8-2.3,1.9l-1.2-1.5l4.4-3.5h2
			V110.9L78.8,110.9z"/>
		<path class="st2" d="M93.3,107.6h-2v3.3h-2.4v-3.3H82v-1.9l6.9-10h2.4v9.8h2C93.3,105.6,93.3,107.6,93.3,107.6z M88.9,105.6v-3.8
			c0-1.4,0-2.5,0.1-3.3h-0.1c-0.2,0.5-0.5,1-0.9,1.7l-3.8,5.5L88.9,105.6L88.9,105.6z"/>
		<path class="st2" d="M107.3,106.8c0,1.3-0.5,2.4-1.5,3.2c-1,0.8-2.3,1.1-4,1.1s-3.1-0.3-4.2-0.8V108c0.7,0.3,1.4,0.6,2.2,0.8
			s1.5,0.3,2.2,0.3c1,0,1.7-0.2,2.2-0.6s0.7-0.9,0.7-1.5s-0.2-1-0.6-1.4s-1.3-0.9-2.6-1.4c-1.4-0.6-2.4-1.2-2.9-1.9
			c-0.6-0.7-0.8-1.6-0.8-2.6c0-1.3,0.4-2.3,1.3-3s2.1-1.1,3.6-1.1c1.4,0,2.9,0.3,4.3,1l-0.8,2c-1.3-0.6-2.5-0.8-3.6-0.8
			c-0.8,0-1.4,0.2-1.8,0.5s-0.6,0.8-0.6,1.4c0,0.4,0.1,0.7,0.2,1s0.4,0.5,0.8,0.8c0.4,0.2,1.1,0.6,2,1c1.1,0.5,1.9,0.9,2.4,1.3
			s0.9,0.9,1.1,1.4C107.2,105.5,107.3,106.1,107.3,106.8z"/>
		<path class="st2" d="M113.7,111.1c-1.8,0-3.2-0.5-4.2-1.6s-1.5-2.5-1.5-4.3c0-1.9,0.5-3.3,1.4-4.4s2.2-1.6,3.8-1.6
			c1.5,0,2.7,0.5,3.6,1.4s1.3,2.2,1.3,3.8v1.3h-7.6c0,1.1,0.3,2,0.9,2.6s1.4,0.9,2.4,0.9c0.7,0,1.3-0.1,1.9-0.2s1.2-0.3,1.9-0.6v2
			c-0.6,0.3-1.2,0.5-1.8,0.6S114.5,111.1,113.7,111.1z M113.3,101.1c-0.8,0-1.4,0.2-1.9,0.7s-0.7,1.2-0.8,2.1h5.2
			c0-0.9-0.2-1.7-0.7-2.1S114.1,101.1,113.3,101.1z"/>
		<path class="st2" d="M126.8,110.9l-0.5-1.6h-0.1c-0.6,0.7-1.1,1.2-1.7,1.4c-0.6,0.3-1.3,0.4-2.2,0.4c-1.1,0-2-0.3-2.6-0.9
			s-0.9-1.5-0.9-2.6c0-1.2,0.4-2.1,1.3-2.7s2.2-0.9,4-1l2-0.1v-0.6c0-0.7-0.2-1.3-0.5-1.6c-0.3-0.4-0.9-0.5-1.6-0.5
			c-0.6,0-1.1,0.1-1.7,0.3c-0.5,0.2-1.1,0.4-1.6,0.6l-0.8-1.7c0.6-0.3,1.3-0.6,2-0.7s1.4-0.3,2.1-0.3c1.5,0,2.6,0.3,3.3,1
			c0.7,0.6,1.1,1.6,1.1,3v7.7C128.6,110.9,126.8,110.9,126.8,110.9z M123.2,109.2c0.9,0,1.6-0.2,2.1-0.7s0.8-1.2,0.8-2.1v-1
			l-1.5,0.1c-1.1,0-2,0.2-2.5,0.6c-0.5,0.3-0.8,0.9-0.8,1.6c0,0.5,0.2,0.9,0.5,1.2C122.1,109.1,122.6,109.2,123.2,109.2z"/>
		<path class="st2" d="M138.4,107.6c0,1.1-0.4,2-1.2,2.6s-2,0.9-3.5,0.9s-2.7-0.2-3.7-0.7v-2.1c1.3,0.6,2.6,0.9,3.8,0.9
			c1.5,0,2.2-0.5,2.2-1.4c0-0.3-0.1-0.5-0.2-0.7c-0.2-0.2-0.4-0.4-0.8-0.6s-0.9-0.4-1.6-0.7c-1.3-0.5-2.2-1-2.7-1.5s-0.7-1.2-0.7-2
			c0-1,0.4-1.7,1.2-2.3c0.8-0.5,1.9-0.8,3.2-0.8s2.6,0.3,3.8,0.8l-0.8,1.8c-1.2-0.5-2.3-0.8-3.1-0.8c-1.3,0-1.9,0.4-1.9,1.1
			c0,0.4,0.2,0.7,0.5,0.9c0.3,0.2,1.1,0.6,2.2,1c0.9,0.4,1.6,0.7,2.1,1c0.4,0.3,0.7,0.7,1,1.1S138.4,107.1,138.4,107.6z"/>
		<path class="st2" d="M149.9,105.1c0,1.9-0.5,3.3-1.4,4.4c-1,1-2.3,1.6-4,1.6c-1.1,0-2-0.2-2.8-0.7s-1.5-1.2-1.9-2.1
			s-0.7-2-0.7-3.1c0-1.9,0.5-3.3,1.4-4.3c1-1,2.3-1.6,4-1.6s3,0.5,3.9,1.6S149.9,103.3,149.9,105.1z M141.5,105.1c0,2.6,1,4,2.9,4
			s2.9-1.3,2.9-4c0-2.6-1-3.9-2.9-3.9c-1,0-1.8,0.3-2.2,1C141.8,102.9,141.5,103.9,141.5,105.1z"/>
		<path class="st2" d="M161.5,110.9H159v-7c0-0.9-0.2-1.5-0.5-2c-0.4-0.4-0.9-0.7-1.7-0.7c-1,0-1.8,0.3-2.3,0.9s-0.7,1.6-0.7,3.1
			v5.7h-2.4V99.4h1.9l0.3,1.5h0.1c0.3-0.5,0.8-1,1.5-1.3c0.6-0.3,1.3-0.4,2.1-0.4c2.7,0,4.1,1.4,4.1,4.2L161.5,110.9L161.5,110.9z"
			/>
	</g>
	<g class="st1">
		<path class="st2" d="M55.6,80.3h6.9V89c-1.9,0.6-3.9,1-6.2,1c-2.5,0-4.4-0.7-5.7-2.2s-2-3.5-2-6.1s0.7-4.6,2.2-6s3.5-2.2,6.2-2.2
			c1,0,2,0.1,2.9,0.3c0.9,0.2,1.7,0.4,2.3,0.7l-1.4,3.4C59.6,77.3,58.4,77,57,77c-1.3,0-2.2,0.4-2.9,1.2c-0.7,0.8-1,2-1,3.5
			s0.3,2.6,0.9,3.4s1.5,1.2,2.7,1.2c0.6,0,1.2-0.1,1.8-0.2v-2.5h-2.9C55.6,83.7,55.6,80.3,55.6,80.3z"/>
		<path class="st2" d="M78,81.3c0,2.7-0.7,4.7-2.2,6.2c-1.5,1.4-3.5,2.2-6.2,2.2h-5.2v-16H70c2.6,0,4.6,0.7,6,2S78,78.9,78,81.3z
			 M73.5,81.5c0-1.5-0.3-2.6-0.9-3.3s-1.5-1.1-2.6-1.1h-1.3v9h1c1.3,0,2.3-0.4,2.9-1.1C73.2,84.2,73.5,83.1,73.5,81.5z"/>
		<path class="st2" d="M86,80.3h6.9V89c-1.9,0.6-3.9,1-6.2,1c-2.5,0-4.4-0.7-5.7-2.2s-2-3.5-2-6.1s0.7-4.6,2.2-6s3.5-2.2,6.2-2.2
			c1,0,2,0.1,2.9,0.3c0.9,0.2,1.7,0.4,2.3,0.7l-1.4,3.4C90,77.3,88.8,77,87.4,77c-1.3,0-2.2,0.4-2.9,1.2c-0.7,0.8-1,2-1,3.5
			s0.3,2.6,0.9,3.4s1.5,1.2,2.7,1.2c0.6,0,1.2-0.1,1.8-0.2v-2.5H86C86,83.7,86,80.3,86,80.3z"/>
	</g>
	
		<radialGradient id="SVGID_5_" cx="164.2108" cy="-655.2233" r="20.0933" gradientTransform="matrix(0.498 0 0 -0.498 -64.1529 -213.4512)" gradientUnits="userSpaceOnUse">
		<stop  offset="0" style="stop-color:#CCCCCC"/>
		<stop  offset="1" style="stop-color:#C0C0C0"/>
	</radialGradient>
	<path class="st7" d="M8.9,124h6.8c1.6,0,3.6-1.1,4.4-2.5l5.7-9.5c0.7-1.4,0.7-3.4-0.1-4.7l-3.4-5.6L8.9,124z"/>
	
		<radialGradient id="SVGID_6_" cx="152.159" cy="-644.9824" r="27.6523" gradientTransform="matrix(0.498 0 0 -0.498 -64.1529 -213.4512)" gradientUnits="userSpaceOnUse">
		<stop  offset="0" style="stop-color:#A0A0A0"/>
		<stop  offset="1" style="stop-color:#7B7B7B"/>
	</radialGradient>
	<path class="st8" d="M16.2,96.5L1.1,121.8c-0.6,1.2,0,2.2,1.5,2.2h6.3l13.4-22.3l-6.1-10.2C17,92.9,17,95.1,16.2,96.5"/>
	
		<radialGradient id="SVGID_7_" cx="161.5551" cy="-605.2233" r="40.6004" gradientTransform="matrix(0.498 0 0 -0.498 -64.1529 -213.4512)" gradientUnits="userSpaceOnUse">
		<stop  offset="0" style="stop-color:#848484"/>
		<stop  offset="1" style="stop-color:#838383"/>
	</radialGradient>
	<path class="st9" d="M2.6,64c-1.6,0-2.3,1.1-1.4,2.5l24.5,40.7c0.8,1.3,0.8,3.3,0.1,4.7l6-9.9L8.9,64H2.6z"/>
	
		<radialGradient id="SVGID_8_" cx="173.6749" cy="-595.2836" r="33.0838" gradientTransform="matrix(0.498 0 0 -0.498 -64.1529 -213.4512)" gradientUnits="userSpaceOnUse">
		<stop  offset="0" style="stop-color:#626262"/>
		<stop  offset="1" style="stop-color:#474747"/>
	</radialGradient>
	<path class="st10" d="M8.9,64l22.9,38l3.3-5.5c0.8-1.4,0.8-3.6,0-5l-15-25c-0.8-1.4-2.8-2.5-4.4-2.5H8.9z"/>
</g>
<g class="st0">
	<g class="st1">
		<path class="st11" d="M116.1,144c0,2.7-0.7,4.7-2.2,6.2s-3.5,2.2-6.2,2.2h-5.1v-16h5.5c2.6,0,4.5,0.7,5.9,2S116.1,141.5,116.1,144
			z M111.6,144.1c0-1.5-0.3-2.6-0.9-3.3s-1.5-1.1-2.6-1.1h-1.3v9h1c1.3,0,2.3-0.4,2.9-1.1C111.3,146.9,111.6,145.7,111.6,144.1z"/>
		<path class="st11" d="M123.3,152.5c-2.1,0-3.6-0.6-4.8-1.7s-1.7-2.7-1.7-4.7c0-2.1,0.5-3.7,1.6-4.8s2.6-1.7,4.5-1.7
			s3.3,0.5,4.3,1.5c1,1,1.5,2.4,1.5,4.2v1.9h-7.6c0,0.7,0.3,1.2,0.8,1.6c0.5,0.4,1.1,0.6,1.9,0.6c0.7,0,1.4-0.1,2.1-0.2
			c0.6-0.1,1.3-0.4,2-0.7v3.1c-0.7,0.3-1.4,0.6-2.1,0.7C125.1,152.5,124.3,152.5,123.3,152.5z M123,142.6c-0.5,0-0.9,0.2-1.3,0.5
			c-0.3,0.3-0.5,0.8-0.6,1.5h3.7c0-0.6-0.2-1.1-0.5-1.4C124,142.8,123.6,142.6,123,142.6z"/>
		<path class="st11" d="M133,152.3l-4.7-12.4h4.4l2.1,7.3c0,0,0,0.1,0,0.2s0,0.2,0.1,0.3c0,0.1,0,0.2,0.1,0.4c0,0.1,0,0.3,0,0.4h0.1
			c0-0.4,0.1-0.8,0.2-1.2l2.2-7.4h4.4l-4.7,12.4H133L133,152.3z"/>
		<path class="st11" d="M146.5,152.3h-4.2v-16h9.4v3.5h-5.2v3.1h4.8v3.5h-4.8V152.3L146.5,152.3z"/>
		<path class="st11" d="M158.7,152.5c-2.1,0-3.6-0.6-4.8-1.7s-1.7-2.7-1.7-4.7c0-2.1,0.5-3.7,1.6-4.8s2.6-1.7,4.5-1.7
			s3.3,0.5,4.3,1.5s1.5,2.4,1.5,4.2v1.9h-7.6c0,0.7,0.3,1.2,0.8,1.6c0.5,0.4,1.1,0.6,1.9,0.6c0.7,0,1.4-0.1,2.1-0.2s1.3-0.4,2-0.7
			v3.1c-0.7,0.3-1.4,0.6-2.1,0.7C160.5,152.5,159.7,152.5,158.7,152.5z M158.4,142.6c-0.5,0-0.9,0.2-1.3,0.5
			c-0.3,0.3-0.5,0.8-0.6,1.5h3.7c0-0.6-0.2-1.1-0.5-1.4C159.4,142.8,159,142.6,158.4,142.6z"/>
		<path class="st11" d="M174.7,148.5c0,1.3-0.4,2.3-1.4,3c-0.9,0.7-2.2,1-3.9,1c-0.9,0-1.7-0.1-2.4-0.1s-1.4-0.3-2.1-0.5v-3.4
			c0.7,0.3,1.4,0.5,2.2,0.7s1.5,0.3,2.1,0.3c0.9,0,1.4-0.2,1.4-0.6c0-0.2-0.1-0.4-0.4-0.6c-0.3-0.2-1-0.5-2.2-1
			c-1.1-0.5-1.9-1-2.4-1.6c-0.4-0.6-0.7-1.4-0.7-2.3c0-1.2,0.4-2.1,1.3-2.7c0.9-0.6,2.1-1,3.8-1c0.8,0,1.6,0.1,2.3,0.3
			s1.5,0.4,2.2,0.8l-1.2,2.8c-0.6-0.3-1.2-0.5-1.8-0.7s-1.1-0.3-1.5-0.3c-0.7,0-1,0.2-1,0.5c0,0.2,0.1,0.4,0.4,0.5
			c0.2,0.1,0.9,0.5,2.1,0.9c0.9,0.4,1.5,0.7,1.9,1.1c0.4,0.3,0.7,0.7,0.9,1.2C174.6,147.3,174.7,147.8,174.7,148.5z"/>
		<path class="st11" d="M181.8,149.2c0.6,0,1.3-0.1,2.1-0.4v3.1c-0.6,0.2-1.1,0.4-1.6,0.5s-1.1,0.2-1.8,0.2c-1.4,0-2.5-0.4-3.1-1.1
			c-0.6-0.7-0.9-1.8-0.9-3.3v-5.1H175v-1.7l1.9-1.3l1.1-2.6h2.8v2.5h3v3.2h-3v4.8C180.6,148.8,181,149.2,181.8,149.2z"/>
	</g>
	<g class="st1">
		<path class="st11" d="M60.4,173.9H50.2V172l3.9-3.9c1.2-1.2,1.9-2,2.3-2.5s0.7-1,0.8-1.4c0.2-0.4,0.3-0.9,0.3-1.4
			c0-0.7-0.2-1.2-0.6-1.6c-0.4-0.4-1-0.6-1.7-0.6c-0.6,0-1.1,0.1-1.7,0.3c-0.5,0.2-1.2,0.6-1.9,1.2l-1.3-1.6
			c0.8-0.7,1.7-1.2,2.5-1.5s1.6-0.4,2.5-0.4c1.4,0,2.5,0.4,3.4,1.1s1.3,1.7,1.3,3c0,0.7-0.1,1.3-0.4,1.9c-0.2,0.6-0.6,1.2-1.1,1.9
			s-1.3,1.5-2.5,2.6l-2.6,2.5v0.1h7.2L60.4,173.9L60.4,173.9z"/>
		<path class="st11" d="M71.3,166.3c0,2.6-0.4,4.6-1.3,5.9c-0.8,1.3-2.1,1.9-3.9,1.9c-1.7,0-3-0.7-3.8-2c-0.9-1.3-1.3-3.2-1.3-5.8
			c0-2.7,0.4-4.6,1.3-5.9c0.8-1.3,2.1-1.9,3.9-1.9c1.7,0,3,0.7,3.8,2S71.3,163.8,71.3,166.3z M63.5,166.3c0,2.1,0.2,3.5,0.6,4.4
			c0.4,0.9,1.1,1.3,2,1.3s1.6-0.4,2-1.3c0.4-0.9,0.6-2.4,0.6-4.4s-0.2-3.5-0.6-4.4s-1.1-1.4-2-1.4s-1.6,0.4-2,1.3
			C63.7,162.8,63.5,164.3,63.5,166.3z"/>
		<path class="st11" d="M79,173.9h-2.4v-9.8c0-1.2,0-2.1,0.1-2.8c-0.2,0.2-0.4,0.3-0.6,0.5s-1,0.8-2.3,1.9l-1.2-1.5l4.4-3.5h2V173.9
			L79,173.9z"/>
		<path class="st11" d="M93.4,170.6h-2v3.3H89v-3.3h-6.9v-1.9l6.9-10h2.4v9.8h2V170.6z M89,168.6v-3.8c0-1.4,0-2.5,0.1-3.3H89
			c-0.2,0.5-0.5,1-0.9,1.7l-3.8,5.5L89,168.6L89,168.6z"/>
		<path class="st11" d="M107.5,169.8c0,1.3-0.5,2.4-1.5,3.2s-2.3,1.1-4,1.1s-3.1-0.3-4.2-0.8V171c0.7,0.3,1.4,0.6,2.2,0.8
			c0.8,0.2,1.5,0.3,2.2,0.3c1,0,1.7-0.2,2.2-0.6s0.7-0.9,0.7-1.5s-0.2-1-0.6-1.4s-1.3-0.9-2.6-1.4c-1.4-0.6-2.4-1.2-2.9-1.9
			c-0.6-0.7-0.8-1.6-0.8-2.6c0-1.3,0.4-2.3,1.3-3s2.1-1.1,3.6-1.1c1.4,0,2.9,0.3,4.3,1l-0.8,2c-1.3-0.6-2.5-0.8-3.6-0.8
			c-0.8,0-1.4,0.2-1.8,0.5s-0.6,0.8-0.6,1.4c0,0.4,0.1,0.7,0.2,1s0.4,0.5,0.8,0.8c0.4,0.2,1.1,0.6,2,1c1.1,0.5,1.9,0.9,2.4,1.3
			c0.5,0.4,0.9,0.9,1.1,1.4C107.4,168.5,107.5,169.1,107.5,169.8z"/>
		<path class="st11" d="M113.9,174.1c-1.8,0-3.2-0.5-4.2-1.6s-1.5-2.5-1.5-4.3c0-1.9,0.5-3.3,1.4-4.4c0.9-1.1,2.2-1.6,3.8-1.6
			c1.5,0,2.7,0.5,3.6,1.4s1.3,2.2,1.3,3.8v1.3h-7.6c0,1.1,0.3,2,0.9,2.6s1.4,0.9,2.4,0.9c0.7,0,1.3-0.1,1.9-0.2
			c0.6-0.1,1.2-0.3,1.9-0.6v2c-0.6,0.3-1.2,0.5-1.8,0.6S114.7,174.1,113.9,174.1z M113.4,164.1c-0.8,0-1.4,0.2-1.9,0.7
			s-0.7,1.2-0.8,2.1h5.2c0-0.9-0.2-1.7-0.7-2.1S114.2,164.1,113.4,164.1z"/>
		<path class="st11" d="M127,173.9l-0.5-1.6h-0.1c-0.6,0.7-1.1,1.2-1.7,1.4c-0.6,0.3-1.3,0.4-2.2,0.4c-1.1,0-2-0.3-2.6-0.9
			c-0.6-0.6-0.9-1.5-0.9-2.6c0-1.2,0.4-2.1,1.3-2.7c0.9-0.6,2.2-0.9,4-1l2-0.1v-0.6c0-0.7-0.2-1.3-0.5-1.6c-0.3-0.4-0.9-0.5-1.6-0.5
			c-0.6,0-1.1,0.1-1.7,0.3c-0.5,0.2-1.1,0.4-1.6,0.6l-0.8-1.7c0.6-0.3,1.3-0.6,2-0.7s1.4-0.3,2.1-0.3c1.5,0,2.6,0.3,3.3,1
			c0.7,0.6,1.1,1.6,1.1,3v7.7L127,173.9L127,173.9z M123.4,172.2c0.9,0,1.6-0.2,2.1-0.7s0.8-1.2,0.8-2.1v-1l-1.5,0.1
			c-1.1,0-2,0.2-2.5,0.6c-0.5,0.3-0.8,0.9-0.8,1.6c0,0.5,0.2,0.9,0.5,1.2C122.3,172.1,122.8,172.2,123.4,172.2z"/>
		<path class="st11" d="M138.5,170.6c0,1.1-0.4,2-1.2,2.6s-2,0.9-3.5,0.9s-2.7-0.2-3.7-0.7v-2.1c1.3,0.6,2.6,0.9,3.8,0.9
			c1.5,0,2.2-0.5,2.2-1.4c0-0.3-0.1-0.5-0.2-0.7c-0.2-0.2-0.4-0.4-0.8-0.6s-0.9-0.4-1.6-0.7c-1.3-0.5-2.2-1-2.7-1.5s-0.7-1.2-0.7-2
			c0-1,0.4-1.7,1.2-2.3c0.8-0.5,1.9-0.8,3.2-0.8s2.6,0.3,3.8,0.8l-0.8,1.8c-1.2-0.5-2.3-0.8-3.1-0.8c-1.3,0-1.9,0.4-1.9,1.1
			c0,0.4,0.2,0.7,0.5,0.9s1.1,0.6,2.2,1c0.9,0.4,1.6,0.7,2.1,1c0.4,0.3,0.7,0.7,1,1.1S138.5,170.1,138.5,170.6z"/>
		<path class="st11" d="M150,168.1c0,1.9-0.5,3.3-1.4,4.4c-1,1-2.3,1.6-4,1.6c-1.1,0-2-0.2-2.8-0.7s-1.5-1.2-1.9-2.1s-0.7-2-0.7-3.1
			c0-1.9,0.5-3.3,1.4-4.3c1-1,2.3-1.6,4-1.6s3,0.5,3.9,1.6S150,166.3,150,168.1z M141.7,168.1c0,2.6,1,4,2.9,4s2.9-1.3,2.9-4
			c0-2.6-1-3.9-2.9-3.9c-1,0-1.8,0.3-2.2,1C141.9,165.9,141.7,166.9,141.7,168.1z"/>
		<path class="st11" d="M161.6,173.9h-2.4v-7c0-0.9-0.2-1.5-0.5-2c-0.4-0.4-0.9-0.7-1.7-0.7c-1,0-1.8,0.3-2.3,0.9
			c-0.5,0.6-0.7,1.6-0.7,3.1v5.7h-2.4v-11.4h1.9l0.3,1.5h0.1c0.3-0.5,0.8-1,1.5-1.3c0.6-0.3,1.3-0.4,2.1-0.4c2.7,0,4.1,1.4,4.1,4.2
			L161.6,173.9L161.6,173.9z"/>
	</g>
	<g class="st1">
		<path class="st11" d="M55.7,143.3h6.9v8.6c-1.9,0.6-3.9,1-6.2,1c-2.5,0-4.4-0.7-5.7-2.1s-2-3.5-2-6.1s0.7-4.6,2.2-6
			s3.5-2.2,6.2-2.2c1,0,2,0.1,2.9,0.3s1.7,0.4,2.3,0.7l-1.4,3.4c-1.2-0.6-2.4-0.9-3.8-0.9c-1.3,0-2.2,0.4-2.9,1.2s-1,2-1,3.5
			s0.3,2.6,0.9,3.4s1.5,1.2,2.7,1.2c0.6,0,1.2-0.1,1.8-0.2v-2.5h-2.9C55.7,146.7,55.7,143.3,55.7,143.3z"/>
		<path class="st11" d="M78.2,144.3c0,2.7-0.7,4.7-2.2,6.2s-3.5,2.2-6.2,2.2h-5.2v-16h5.6c2.6,0,4.6,0.7,6,2S78.2,141.9,78.2,144.3z
			 M73.7,144.5c0-1.5-0.3-2.6-0.9-3.3s-1.5-1.1-2.6-1.1h-1.3v9h1c1.3,0,2.3-0.4,2.9-1.1C73.4,147.2,73.7,146.1,73.7,144.5z"/>
		<path class="st11" d="M86.2,143.3h6.9v8.6c-1.9,0.6-3.9,1-6.2,1c-2.5,0-4.4-0.7-5.7-2.1s-2-3.5-2-6.1s0.7-4.6,2.2-6
			s3.5-2.2,6.2-2.2c1,0,2,0.1,2.9,0.3s1.7,0.4,2.3,0.7l-1.4,3.4c-1.2-0.6-2.4-0.9-3.8-0.9c-1.3,0-2.2,0.4-2.9,1.2
			c-0.7,0.8-1,2-1,3.5s0.3,2.6,0.9,3.4s1.5,1.2,2.7,1.2c0.6,0,1.2-0.1,1.8-0.2v-2.5h-2.9V143.3z"/>
	</g>
	
		<radialGradient id="SVGID_9_" cx="164.528" cy="-781.7293" r="20.1081" gradientTransform="matrix(0.498 0 0 -0.498 -64.1529 -213.4512)" gradientUnits="userSpaceOnUse">
		<stop  offset="0" style="stop-color:#FFCF4F"/>
		<stop  offset="1" style="stop-color:#F4C236"/>
	</radialGradient>
	<path class="st12" d="M9.1,187h6.8c1.6,0,3.6-1.1,4.4-2.5L26,175c0.7-1.4,0.7-3.4-0.1-4.7l-3.4-5.6L9.1,187z"/>
	
		<radialGradient id="SVGID_10_" cx="152.4858" cy="-771.4883" r="27.6377" gradientTransform="matrix(0.498 0 0 -0.498 -64.1529 -213.4512)" gradientUnits="userSpaceOnUse">
		<stop  offset="0" style="stop-color:#08A960"/>
		<stop  offset="1" style="stop-color:#07914B"/>
	</radialGradient>
	<path class="st13" d="M16.4,159.5L1.3,184.8c-0.6,1.2,0,2.2,1.5,2.2h6.3l13.4-22.3l-6.1-10.2C17.2,155.9,17.2,158.1,16.4,159.5"/>
	
		<radialGradient id="SVGID_11_" cx="161.9567" cy="-731.7293" r="40.5679" gradientTransform="matrix(0.498 0 0 -0.498 -64.1529 -213.4512)" gradientUnits="userSpaceOnUse">
		<stop  offset="0" style="stop-color:#567FC0"/>
		<stop  offset="1" style="stop-color:#557FC0"/>
	</radialGradient>
	<path class="st14" d="M2.8,127c-1.6,0-2.3,1.1-1.4,2.5l24.5,40.7c0.8,1.3,0.8,3.3,0.1,4.7l6-9.9L9.1,127H2.8z"/>
	
		<radialGradient id="SVGID_12_" cx="174.0018" cy="-721.7896" r="33.0799" gradientTransform="matrix(0.498 0 0 -0.498 -64.1529 -213.4512)" gradientUnits="userSpaceOnUse">
		<stop  offset="0" style="stop-color:#E14C40"/>
		<stop  offset="1" style="stop-color:#CD392D"/>
	</radialGradient>
	<path class="st15" d="M9.1,127L32,165l3.3-5.5c0.8-1.4,0.8-3.6,0-5l-15-25c-0.8-1.4-2.8-2.5-4.4-2.5H9.1z"/>
</g>
<g id="Layer_2_1_">
	<text transform="matrix(1 0 0 1 1.0088 31.5684)" class="st16 st17">JS</text>
	<text transform="matrix(1 0 0 1 74.8088 31.5684)" class="st18 st16 st17">DAY</text>
	<polygon points="184.3,60.7 0.7,59.7 0.7,35.2 184.3,36.2 	"/>
	<text transform="matrix(1 0 0 1 18.1008 54.7603)" class="st19 st20 st21">Online edition</text>
	<text transform="matrix(1 0 0 1 0.9472 94.4137)" class="st16 st17">JS</text>
	<text transform="matrix(1 0 0 1 74.7472 94.4137)" class="st18 st16 st17">DAY</text>
	<polyline points="184.3,123.5 0.7,122.5 0.7,98.1 184.3,99.1 184.3,123.5 	"/>
	<text transform="matrix(1 0 0 1 18.1007 117.6057)" class="st19 st20 st21">Online edition</text>
	<text transform="matrix(1 0 0 1 0.8112 157.5488)" class="st16 st17">JS</text>
	<text transform="matrix(1 0 0 1 74.6112 157.5488)" class="st19 st16 st17">DAY</text>
	<polyline points="184.2,186.7 0.5,185.7 0.5,161.2 184.2,162.2 184.2,186.7 	"/>
	<text transform="matrix(1 0 0 1 18.1005 180.7408)" class="st19 st20 st21">Online edition</text>
</g>
</svg>
